<svg width="360" height="400" viewBox="0 0 360 400" fill="none" xmlns="http://www.w3.org/2000/svg">
<path d="M332.443 190.608H205.941V188H148.58V190.608H21.5569C20.4332 190.608 19.3205 190.83 18.2823 191.26C17.2441 191.69 16.3008 192.32 15.5063 193.115C14.7117 193.91 14.0814 194.854 13.6514 195.892C13.2213 196.931 13 198.044 13 199.168V372.44C13 374.711 13.9015 376.888 15.5063 378.493C17.111 380.098 19.2875 381 21.5569 381H332.443C334.713 381 336.889 380.098 338.494 378.493C340.098 376.888 341 374.711 341 372.44V199.168C341 198.044 340.779 196.931 340.349 195.892C339.919 194.854 339.288 193.91 338.494 193.115C337.699 192.32 336.756 191.69 335.718 191.26C334.68 190.83 333.567 190.608 332.443 190.608V190.608Z" fill="#3F3D56"/>
<path d="M329 206H25V377H329V206Z" fill="#3B82F6"/>
<path d="M177.5 201C178.881 201 180 199.657 180 198C180 196.343 178.881 195 177.5 195C176.119 195 175 196.343 175 198C175 199.657 176.119 201 177.5 201Z" fill="#3B82F6"/>
<path opacity="0.1" d="M244 377H25V206L244 377Z" fill="black"/>
<path d="M72.5 366C89.3447 366 103 352.569 103 336C103 319.431 89.3447 306 72.5 306C55.6553 306 42 319.431 42 336C42 352.569 55.6553 366 72.5 366Z" fill="#F2F2F2"/>
<path d="M277 298H249V304H277V298Z" fill="#3F3D56"/>
<path d="M312 252H214V255H312V252Z" fill="#3F3D56"/>
<path d="M312 260H214V263H312V260Z" fill="#3F3D56"/>
<path d="M312 269H214V271H312V269Z" fill="#3F3D56"/>
<path d="M312 277H214V280H312V277Z" fill="#3F3D56"/>
<path d="M312 285H214V288H312V285Z" fill="#3F3D56"/>
<path d="M312 210H300V222H312V210Z" fill="#F2F2F2"/>
<path d="M318 226H303V213H318V226ZM303.652 225.435H317.348V213.565H303.652V225.435Z" fill="#3F3D56"/>
<path d="M349.787 374.608H320V372.431C320 372.375 319.989 372.319 319.968 372.266C319.946 372.214 319.915 372.166 319.875 372.126C319.836 372.086 319.789 372.055 319.737 372.033C319.686 372.011 319.63 372 319.574 372H309.362C309.306 372 309.25 372.011 309.199 372.033C309.147 372.055 309.1 372.086 309.061 372.126C309.021 372.166 308.99 372.214 308.969 372.266C308.947 372.319 308.936 372.375 308.936 372.431V374.608H302.553V372.431C302.553 372.375 302.542 372.319 302.521 372.266C302.499 372.214 302.468 372.166 302.429 372.126C302.389 372.086 302.342 372.055 302.291 372.033C302.239 372.011 302.184 372 302.128 372H291.915C291.859 372 291.804 372.011 291.752 372.033C291.7 372.055 291.654 372.086 291.614 372.126C291.574 372.166 291.543 372.214 291.522 372.266C291.5 372.319 291.489 372.375 291.489 372.431V374.608H285.106V372.431C285.106 372.375 285.095 372.319 285.074 372.266C285.053 372.214 285.021 372.166 284.982 372.126C284.942 372.086 284.895 372.055 284.844 372.033C284.792 372.011 284.737 372 284.681 372H274.468C274.412 372 274.357 372.011 274.305 372.033C274.254 372.055 274.207 372.086 274.167 372.126C274.128 372.166 274.096 372.214 274.075 372.266C274.054 372.319 274.043 372.375 274.043 372.431V374.608H267.66V372.431C267.66 372.375 267.649 372.319 267.627 372.266C267.606 372.214 267.574 372.166 267.535 372.126C267.495 372.086 267.449 372.055 267.397 372.033C267.345 372.011 267.29 372 267.234 372H257.021C256.965 372 256.91 372.011 256.858 372.033C256.807 372.055 256.76 372.086 256.72 372.126C256.681 372.166 256.65 372.214 256.628 372.266C256.607 372.319 256.596 372.375 256.596 372.431V374.608H250.213V372.431C250.213 372.375 250.202 372.319 250.18 372.266C250.159 372.214 250.128 372.166 250.088 372.126C250.049 372.086 250.002 372.055 249.95 372.033C249.898 372.011 249.843 372 249.787 372H239.574C239.519 372 239.463 372.011 239.412 372.033C239.36 372.055 239.313 372.086 239.274 372.126C239.234 372.166 239.203 372.214 239.181 372.266C239.16 372.319 239.149 372.375 239.149 372.431V374.608H232.766V372.431C232.766 372.375 232.755 372.319 232.734 372.266C232.712 372.214 232.681 372.166 232.641 372.126C232.602 372.086 232.555 372.055 232.503 372.033C232.452 372.011 232.396 372 232.34 372H222.128C222.072 372 222.016 372.011 221.965 372.033C221.913 372.055 221.866 372.086 221.827 372.126C221.787 372.166 221.756 372.214 221.735 372.266C221.713 372.319 221.702 372.375 221.702 372.431V374.608H215.319V372.431C215.319 372.375 215.308 372.319 215.287 372.266C215.265 372.214 215.234 372.166 215.195 372.126C215.155 372.086 215.108 372.055 215.056 372.033C215.005 372.011 214.949 372 214.894 372H134.894C134.838 372 134.782 372.011 134.731 372.033C134.679 372.055 134.632 372.086 134.593 372.126C134.553 372.166 134.522 372.214 134.5 372.266C134.479 372.319 134.468 372.375 134.468 372.431V374.608H128.085V372.431C128.085 372.375 128.074 372.319 128.053 372.266C128.031 372.214 128 372.166 127.96 372.126C127.921 372.086 127.874 372.055 127.822 372.033C127.771 372.011 127.715 372 127.66 372H117.447C117.391 372 117.336 372.011 117.284 372.033C117.232 372.055 117.185 372.086 117.146 372.126C117.106 372.166 117.075 372.214 117.054 372.266C117.032 372.319 117.021 372.375 117.021 372.431V374.608H110.638V372.431C110.638 372.375 110.627 372.319 110.606 372.266C110.585 372.214 110.553 372.166 110.514 372.126C110.474 372.086 110.427 372.055 110.376 372.033C110.324 372.011 110.269 372 110.213 372H100C99.9441 372 99.8888 372.011 99.8372 372.033C99.7855 372.055 99.7386 372.086 99.6991 372.126C99.6596 372.166 99.6282 372.214 99.6069 372.266C99.5855 372.319 99.5745 372.375 99.5745 372.431V374.608H93.1915V372.431C93.1915 372.375 93.1805 372.319 93.1591 372.266C93.1377 372.214 93.1064 372.166 93.0669 372.126C93.0273 372.086 92.9804 372.055 92.9288 372.033C92.8772 372.011 92.8218 372 92.766 372H82.5532C82.4973 372 82.442 372.011 82.3903 372.033C82.3387 372.055 82.2918 372.086 82.2523 372.126C82.2128 372.166 82.1814 372.214 82.16 372.266C82.1387 372.319 82.1277 372.375 82.1277 372.431V374.608H75.7447V372.431C75.7447 372.375 75.7337 372.319 75.7123 372.266C75.6909 372.214 75.6596 372.166 75.6201 372.126C75.5806 372.086 75.5336 372.055 75.482 372.033C75.4304 372.011 75.3751 372 75.3192 372H65.1064C65.0505 372 64.9952 372.011 64.9435 372.033C64.8919 372.055 64.845 372.086 64.8055 372.126C64.766 372.166 64.7346 372.214 64.7132 372.266C64.6919 372.319 64.6808 372.375 64.6808 372.431V374.608H58.2979V372.431C58.2979 372.375 58.2869 372.319 58.2655 372.266C58.2441 372.214 58.2128 372.166 58.1732 372.126C58.1337 372.086 58.0868 372.055 58.0352 372.033C57.9836 372.011 57.9282 372 57.8723 372H47.6596C47.6037 372 47.5484 372.011 47.4967 372.033C47.4451 372.055 47.3982 372.086 47.3587 372.126C47.3192 372.166 47.2878 372.214 47.2664 372.266C47.245 372.319 47.234 372.375 47.234 372.431V374.608H40.8511V372.431C40.8511 372.375 40.8401 372.319 40.8187 372.266C40.7973 372.214 40.7659 372.166 40.7264 372.126C40.6869 372.086 40.64 372.055 40.5884 372.033C40.5368 372.011 40.4814 372 40.4255 372H30.2128C30.1569 372 30.1015 372.011 30.0499 372.033C29.9983 372.055 29.9514 372.086 29.9119 372.126C29.8724 372.166 29.841 372.214 29.8196 372.266C29.7982 372.319 29.7872 372.375 29.7872 372.431V374.608H10.2128C7.50417 374.608 4.90652 375.699 2.99125 377.64C1.07599 379.582 2.58048e-06 382.216 0 384.963V389.645C7.74144e-06 392.391 1.076 395.025 2.99126 396.967C4.90653 398.909 7.50418 400 10.2128 400H349.787C352.496 400 355.093 398.909 357.009 396.967C358.924 395.025 360 392.391 360 389.645V384.963C360 382.216 358.924 379.582 357.009 377.64C355.093 375.699 352.496 374.608 349.787 374.608Z" fill="#3F3D56"/>
<path d="M79 355C71.6821 355 64.5285 352.83 58.4439 348.764C52.3593 344.699 47.6169 338.92 44.8165 332.159C42.016 325.398 41.2833 317.959 42.711 310.782C44.1386 303.604 47.6625 297.012 52.8371 291.837C58.0116 286.663 64.6044 283.139 71.7817 281.711C78.959 280.283 86.3984 281.016 93.1593 283.816C99.9202 286.617 105.699 291.359 109.764 297.444C113.83 303.529 116 310.682 116 318C115.989 327.81 112.087 337.214 105.151 344.151C98.2142 351.087 88.8096 354.989 79 355ZM79 281.974C71.8747 281.974 64.9094 284.087 58.9849 288.045C53.0604 292.004 48.4428 297.63 45.716 304.213C42.9893 310.796 42.2759 318.04 43.6659 325.028C45.056 332.017 48.4872 338.436 53.5256 343.474C58.5639 348.513 64.9832 351.944 71.9716 353.334C78.96 354.724 86.2037 354.011 92.7867 351.284C99.3696 348.557 104.996 343.94 108.955 338.015C112.913 332.091 115.026 325.125 115.026 318C115.016 308.449 111.216 299.291 104.463 292.537C97.7086 285.784 88.5515 281.985 79 281.974V281.974Z" fill="#3F3D56"/>
<path d="M360 78.658H358.182V28.8358C358.182 25.049 357.436 21.2993 355.987 17.8008C354.539 14.3022 352.415 11.1234 349.738 8.44577C347.061 5.76812 343.883 3.6441 340.386 2.19497C336.888 0.745839 333.14 -1.10447e-05 329.354 1.98709e-10H223.828C220.042 -1.4057e-05 216.293 0.745829 212.796 2.19496C209.298 3.64408 206.12 5.76812 203.444 8.44577C200.767 11.1234 198.643 14.3022 197.194 17.8008C195.746 21.2993 195 25.049 195 28.8358V302.164C195 305.951 195.746 309.701 197.194 313.199C198.643 316.698 200.767 319.877 203.444 322.554C206.12 325.232 209.298 327.356 212.796 328.805C216.293 330.254 220.042 331 223.828 331H329.354C333.14 331 336.888 330.254 340.386 328.805C343.883 327.356 347.061 325.232 349.738 322.554C352.415 319.877 354.539 316.698 355.987 313.199C357.436 309.701 358.182 305.951 358.182 302.164V114.122H360V78.658Z" fill="#3F3D56"/>
<path d="M352 30.531V303.461C352.001 309.173 349.735 314.651 345.701 318.69C341.666 322.729 336.194 324.999 330.487 325H224.513C218.806 324.999 213.334 322.729 209.299 318.69C205.265 314.651 202.999 309.173 203 303.461V30.531C203.001 24.8208 205.267 19.3447 209.302 15.307C213.336 11.2692 218.807 9.00061 224.513 9H237.37C236.737 10.5534 236.496 12.2386 236.667 13.9073C236.838 15.5761 237.417 17.177 238.352 18.5691C239.287 19.9613 240.55 21.1019 242.029 21.8905C243.509 22.6792 245.159 23.0916 246.835 23.0915H307.256C308.932 23.0916 310.582 22.6792 312.061 21.8906C313.541 21.1019 314.804 19.9613 315.739 18.5692C316.674 17.177 317.252 15.5761 317.424 13.9073C317.595 12.2386 317.354 10.5534 316.721 9H330.487C336.193 9.00061 341.664 11.2692 345.698 15.307C349.733 19.3447 351.999 24.8208 352 30.531V30.531Z" fill="#3B82F6"/>
<path d="M293 189H262V198H293V189Z" fill="#3F3D56"/>
<path d="M332 116H224V120H332V116Z" fill="#3F3D56"/>
<path d="M332 129H224V133H332V129Z" fill="#3F3D56"/>
<path d="M332 141H224V145H332V141Z" fill="#3F3D56"/>
<path d="M332 154H224V158H332V154Z" fill="#3F3D56"/>
<path d="M332 167H224V171H332V167Z" fill="#3F3D56"/>
<path d="M281 63H263V81H281V63Z" fill="#F2F2F2"/>
<path d="M270 67V90H292V67H270ZM291.046 89.0023H270.954V67.9977H291.046V89.0023Z" fill="#3F3D56"/>
<path opacity="0.1" d="M352 274.165V303.398C352.001 309.126 349.735 314.62 345.701 318.671C341.666 322.722 336.194 324.999 330.487 325H224.513C218.806 324.999 213.334 322.722 209.299 318.671C205.265 314.62 202.999 309.126 203 303.398V156L292.282 226.804L293.81 228.016L310.418 241.182L311.969 242.417L352 274.165Z" fill="black"/>
<path d="M268.5 316C287.002 316 302 301.002 302 282.5C302 263.998 287.002 249 268.5 249C249.998 249 235 263.998 235 282.5C235 301.002 249.998 316 268.5 316Z" fill="#F2F2F2"/>
<path d="M278 308C269.693 308 261.573 305.537 254.666 300.922C247.759 296.307 242.376 289.747 239.197 282.073C236.018 274.398 235.186 265.953 236.807 257.806C238.428 249.659 242.428 242.175 248.302 236.302C254.175 230.428 261.659 226.428 269.806 224.807C277.953 223.186 286.398 224.018 294.073 227.197C301.747 230.376 308.307 235.759 312.922 242.666C317.537 249.573 320 257.693 320 266C319.987 277.135 315.558 287.811 307.685 295.685C299.811 303.558 289.135 307.987 278 308V308ZM278 225.527C269.995 225.527 262.17 227.901 255.515 232.348C248.859 236.795 243.671 243.116 240.608 250.512C237.545 257.907 236.743 266.045 238.305 273.896C239.867 281.747 243.721 288.958 249.381 294.619C255.042 300.279 262.253 304.133 270.104 305.695C277.955 307.257 286.093 306.455 293.488 303.392C300.884 300.329 307.205 295.141 311.652 288.485C316.099 281.83 318.473 274.005 318.473 266C318.461 255.27 314.193 244.982 306.605 237.395C299.018 229.807 288.73 225.539 278 225.527Z" fill="#3F3D56"/>
<path d="M281 7H45V9H281V7Z" fill="#3F3D56"/>
<path d="M41 44H13V72H41V44Z" fill="#3B82F6"/>
<path d="M58 56H24V22H58V56ZM25.4783 54.5217H56.5217V23.4783H25.4783V54.5217Z" fill="#3F3D56"/>
<path d="M110 65H5V67H110V65Z" fill="#3F3D56"/>
<path d="M119.5 128C133.031 128 144 117.031 144 103.5C144 89.969 133.031 79 119.5 79C105.969 79 95 89.969 95 103.5C95 117.031 105.969 128 119.5 128Z" fill="#F2F2F2"/>
<path d="M123.5 124C137.031 124 148 113.031 148 99.5C148 85.969 137.031 75 123.5 75C109.969 75 99 85.969 99 99.5C99 113.031 109.969 124 123.5 124Z" fill="#3B82F6"/>
<path d="M150 158C142.88 158 135.92 155.889 129.999 151.933C124.079 147.977 119.465 142.355 116.74 135.777C114.016 129.198 113.303 121.96 114.692 114.977C116.081 107.993 119.509 101.579 124.544 96.5442C129.579 91.5095 135.993 88.0808 142.977 86.6917C149.96 85.3027 157.198 86.0156 163.777 88.7404C170.355 91.4651 175.977 96.0793 179.933 101.999C183.889 107.92 186 114.88 186 122C185.989 131.544 182.193 140.695 175.444 147.444C168.695 154.193 159.544 157.989 150 158ZM150 86.8276C143.044 86.8276 136.243 88.8904 130.459 92.7552C124.675 96.62 120.167 102.113 117.505 108.54C114.843 114.967 114.146 122.039 115.503 128.862C116.861 135.685 120.21 141.952 125.129 146.871C130.048 151.79 136.315 155.139 143.138 156.497C149.961 157.854 157.033 157.157 163.46 154.495C169.887 151.833 175.38 147.325 179.245 141.541C183.11 135.757 185.172 128.956 185.172 122C185.162 112.675 181.453 103.735 174.859 97.141C168.265 90.5472 159.325 86.8381 150 86.8276V86.8276Z" fill="#3F3D56"/>
<path d="M78 151H50V179H78V151Z" fill="#3B82F6"/>
<path d="M95 163H61V129H95V163ZM62.4783 161.522H93.5217V130.478H62.4783V161.522Z" fill="#3F3D56"/>
<path d="M172 39H144V67H172V39Z" fill="#3B82F6"/>
<path d="M189 51H155V17H189V51ZM156.478 49.5217H187.522V18.4783H156.478V49.5217Z" fill="#3F3D56"/>
<path d="M103 172H1V174H103V172Z" fill="#3F3D56"/>
<path d="M188 143H82V145H188V143Z" fill="#3F3D56"/>
</svg>
