<svg width="360" height="400" viewBox="0 0 360 400" fill="none" xmlns="http://www.w3.org/2000/svg">
<g clip-path="url(#clip0_157_284)">
<path d="M167 340.999C132.99 340.999 100.033 329.207 73.744 307.632C47.4547 286.057 29.4595 256.033 22.8247 222.678C16.1899 189.322 21.326 154.698 37.3579 124.704C53.3898 94.711 79.3254 71.2043 110.746 58.1896C142.166 45.175 177.127 43.4575 209.672 53.3298C242.217 63.2022 270.331 84.0536 289.226 112.331C308.12 140.609 316.625 174.563 313.292 208.408C309.958 242.254 294.993 273.896 270.945 297.944C257.326 311.637 241.127 322.493 223.285 329.883C205.442 337.274 186.312 341.052 167 340.999V340.999ZM167 48.1297C86.5669 48.1297 21.1299 113.567 21.1299 194C21.1299 274.432 86.5669 339.869 167 339.869C247.432 339.869 312.869 274.432 312.869 194C312.869 113.567 247.432 48.1297 167 48.1297V48.1297Z" fill="#2F2E41"/>
<path d="M338.265 354.386V171.931H202.656V354.386H338.265Z" fill="#2F2E41"/>
<path d="M360.455 167H178V239.735H360.455V167Z" fill="#3F3D56"/>
<path d="M360.455 247.132H178V319.868H360.455V247.132Z" fill="#3F3D56"/>
<path d="M360.455 327.265H178V400H360.455V327.265Z" fill="#3F3D56"/>
<path d="M360.455 197.82H178V208.915H360.455V197.82Z" fill="#3B82F6"/>
<path d="M360.455 279.185H178V289.048H360.455V279.185Z" fill="#3B82F6"/>
<path d="M360.455 359.317H178V369.18H360.455V359.317Z" fill="#3B82F6"/>
<path d="M325.32 179.328C327.703 179.328 329.635 177.672 329.635 175.63C329.635 173.587 327.703 171.931 325.32 171.931C322.937 171.931 321.005 173.587 321.005 175.63C321.005 177.672 322.937 179.328 325.32 179.328Z" fill="#3B82F6"/>
<path d="M340.73 179.328C342.773 179.328 344.429 177.672 344.429 175.63C344.429 173.587 342.773 171.931 340.73 171.931C338.688 171.931 337.032 173.587 337.032 175.63C337.032 177.672 338.688 179.328 340.73 179.328Z" fill="#3B82F6"/>
<path d="M354.907 179.328C357.29 179.328 359.222 177.672 359.222 175.63C359.222 173.587 357.29 171.931 354.907 171.931C352.524 171.931 350.593 173.587 350.593 175.63C350.593 177.672 352.524 179.328 354.907 179.328Z" fill="#3B82F6"/>
<path d="M325.32 261.926C327.703 261.926 329.635 259.442 329.635 256.378C329.635 253.314 327.703 250.831 325.32 250.831C322.937 250.831 321.005 253.314 321.005 256.378C321.005 259.442 322.937 261.926 325.32 261.926Z" fill="#3B82F6"/>
<path d="M340.73 261.926C342.773 261.926 344.429 259.442 344.429 256.378C344.429 253.314 342.773 250.831 340.73 250.831C338.688 250.831 337.032 253.314 337.032 256.378C337.032 259.442 338.688 261.926 340.73 261.926Z" fill="#3B82F6"/>
<path d="M354.907 261.926C357.29 261.926 359.222 259.442 359.222 256.378C359.222 253.314 357.29 250.831 354.907 250.831C352.524 250.831 350.593 253.314 350.593 256.378C350.593 259.442 352.524 261.926 354.907 261.926Z" fill="#3B82F6"/>
<path d="M325.32 339.593C327.703 339.593 329.635 337.385 329.635 334.661C329.635 331.938 327.703 329.73 325.32 329.73C322.937 329.73 321.005 331.938 321.005 334.661C321.005 337.385 322.937 339.593 325.32 339.593Z" fill="#3B82F6"/>
<path d="M340.73 339.593C342.773 339.593 344.429 337.385 344.429 334.661C344.429 331.938 342.773 329.73 340.73 329.73C338.688 329.73 337.032 331.938 337.032 334.661C337.032 337.385 338.688 339.593 340.73 339.593Z" fill="#3B82F6"/>
<path d="M354.907 339.593C357.29 339.593 359.222 337.385 359.222 334.661C359.222 331.938 357.29 329.73 354.907 329.73C352.524 329.73 350.593 331.938 350.593 334.661C350.593 337.385 352.524 339.593 354.907 339.593Z" fill="#3B82F6"/>
<path d="M184.292 0H0V118H184.292V0Z" fill="#2F2E41"/>
<path d="M167.056 33.1461H13.2584V90.1573H167.056V33.1461Z" fill="#3F3D56"/>
<path d="M76.8989 42.427H41.1011V45.0787H76.8989V42.427Z" fill="#F2F2F2"/>
<path d="M98.1124 51.7079H41.1011V53.0337H98.1124V51.7079Z" fill="#3B82F6"/>
<path d="M84.8539 58.3371H41.1011V59.6629H84.8539V58.3371Z" fill="#F2F2F2"/>
<path d="M67.618 64.9663H41.1011V67.618H67.618V64.9663Z" fill="#F2F2F2"/>
<path d="M80.8764 74.2472H41.1011V75.573H80.8764V74.2472Z" fill="#F2F2F2"/>
<path d="M29.1686 42.427H25.191V45.0787H29.1686V42.427Z" fill="#F2F2F2"/>
<path d="M29.1686 49.0562H25.191V54.3596H29.1686V49.0562Z" fill="#3B82F6"/>
<path d="M29.1686 57.0112H25.191V60.9888H29.1686V57.0112Z" fill="#F2F2F2"/>
<path d="M29.1686 64.9663H25.191V67.618H29.1686V64.9663Z" fill="#F2F2F2"/>
<path d="M29.1686 70.2697H25.191V75.573H29.1686V70.2697Z" fill="#F2F2F2"/>
<path d="M157.775 41.1011H120.652V78.2247H157.775V41.1011Z" fill="#F2F2F2"/>
<path d="M184.292 0H0V7.95506H184.292V0Z" fill="#3B82F6"/>
<path d="M5.30338 5.30336C6.03562 5.30336 6.62922 4.41296 6.62922 3.3146C6.62922 2.21624 6.03562 1.32584 5.30338 1.32584C4.57114 1.32584 3.97754 2.21624 3.97754 3.3146C3.97754 4.41296 4.57114 5.30336 5.30338 5.30336Z" fill="#F2F2F2"/>
<path d="M10.6067 5.30336C11.339 5.30336 11.9326 4.41296 11.9326 3.3146C11.9326 2.21624 11.339 1.32584 10.6067 1.32584C9.87448 1.32584 9.28088 2.21624 9.28088 3.3146C9.28088 4.41296 9.87448 5.30336 10.6067 5.30336Z" fill="#F2F2F2"/>
<path d="M16.573 5.30336C17.6714 5.30336 18.5618 4.41296 18.5618 3.3146C18.5618 2.21624 17.6714 1.32584 16.573 1.32584C15.4747 1.32584 14.5843 2.21624 14.5843 3.3146C14.5843 4.41296 15.4747 5.30336 16.573 5.30336Z" fill="#F2F2F2"/>
<path d="M49.9747 316.165C77.5749 316.165 99.9494 294.19 99.9494 267.082C99.9494 239.975 77.5749 218 49.9747 218C22.3744 218 0 239.975 0 267.082C0 294.19 22.3744 316.165 49.9747 316.165Z" fill="#2F2E41"/>
<path d="M49.9747 305.456C71.6606 305.456 89.2405 288.275 89.2405 267.082C89.2405 245.889 71.6606 228.709 49.9747 228.709C28.2888 228.709 10.7089 245.889 10.7089 267.082C10.7089 288.275 28.2888 305.456 49.9747 305.456Z" fill="#3F3D56"/>
<path d="M67.8228 255.481H35.6962V257.266H67.8228V255.481Z" fill="#F2F2F2"/>
<path d="M83.8861 262.62H35.6962V264.405H83.8861V262.62Z" fill="#3B82F6"/>
<path d="M74.9621 266.19H35.6962V267.975H74.9621V266.19Z" fill="#F2F2F2"/>
<path d="M58.8988 275.114H35.6962V276.899H58.8988V275.114Z" fill="#F2F2F2"/>
<path d="M26.7721 255.481H23.2025V257.266H26.7721V255.481Z" fill="#F2F2F2"/>
<path d="M26.7721 259.051H23.2025V264.405H26.7721V259.051Z" fill="#3B82F6"/>
<path d="M26.7721 266.19H23.2025V271.544H26.7721V266.19Z" fill="#F2F2F2"/>
<path d="M26.7721 275.114H23.2025V276.899H26.7721V275.114Z" fill="#F2F2F2"/>
<path d="M26.7721 278.684H23.2025V282.253H26.7721V278.684Z" fill="#F2F2F2"/>
<path d="M267.5 115C281.031 115 292 104.031 292 90.5C292 76.969 281.031 66 267.5 66C253.969 66 243 76.969 243 90.5C243 104.031 253.969 115 267.5 115Z" fill="#3B82F6"/>
<path d="M344 38H316V66H344V38Z" fill="#3B82F6"/>
<path d="M360 59H326V25H360V59ZM327.478 57.5217H358.522V26.4783H327.478V57.5217Z" fill="#3F3D56"/>
<path d="M335 42H230V44H335V42Z" fill="#3F3D56"/>
<path d="M152 152H117V187H152V152Z" fill="#3B82F6"/>
<path d="M166 177H125V136H166V177ZM126.783 175.217H164.217V137.783H126.783V175.217Z" fill="#3F3D56"/>
<path d="M146 143H41V145H146V143Z" fill="#3F3D56"/>
<path d="M50 388H9V347H50V388ZM10.7826 386.217H48.2174V348.783H10.7826V386.217Z" fill="#3F3D56"/>
<path d="M138 357H33V359H138V357Z" fill="#3F3D56"/>
<path d="M261 160H156V162H261V160Z" fill="#3F3D56"/>
<path d="M245 148C237.88 148 230.92 145.889 224.999 141.933C219.079 137.977 214.465 132.355 211.74 125.777C209.016 119.198 208.303 111.96 209.692 104.977C211.081 97.9934 214.509 91.5789 219.544 86.5442C224.579 81.5095 230.993 78.0808 237.977 76.6917C244.96 75.3027 252.198 76.0156 258.777 78.7404C265.355 81.4651 270.977 86.0793 274.933 91.9995C278.889 97.9197 281 104.88 281 112C280.989 121.544 277.193 130.695 270.444 137.444C263.695 144.193 254.544 147.989 245 148ZM245 76.8276C238.044 76.8276 231.243 78.8904 225.459 82.7552C219.675 86.62 215.167 92.1132 212.505 98.5401C209.843 104.967 209.146 112.039 210.503 118.862C211.861 125.685 215.21 131.952 220.129 136.871C225.048 141.79 231.315 145.139 238.138 146.497C244.961 147.854 252.033 147.157 258.46 144.495C264.887 141.833 270.38 137.325 274.245 131.541C278.11 125.757 280.172 118.956 280.172 112C280.162 102.675 276.453 93.7348 269.859 87.141C263.265 80.5472 254.325 76.8381 245 76.8276V76.8276Z" fill="#3F3D56"/>
<path d="M35 365H0V400H35V365Z" fill="#3B82F6"/>
</g>
<defs>
<clipPath id="clip0_157_284">
<rect width="360" height="400" fill="white"/>
</clipPath>
</defs>
</svg>
