<svg width="360" height="400" viewBox="0 0 360 400" fill="none" xmlns="http://www.w3.org/2000/svg">
<g clip-path="url(#clip0_157_344)">
<path d="M57.2968 136.428C86.2599 150.928 104.125 173.873 104.125 173.873C104.125 173.873 75.0313 173.307 46.0681 158.807C17.1049 144.307 -0.760039 121.363 -0.760039 121.363C-0.760039 121.363 28.3336 121.928 57.2968 136.428Z" fill="#3B82F6"/>
<path d="M66.5614 127.163C81.0616 156.127 104.006 173.991 104.006 173.991C104.006 173.991 103.441 144.898 88.9407 115.935C74.4405 86.9715 51.4961 69.1066 51.4961 69.1066C51.4961 69.1066 52.0612 98.2002 66.5614 127.163Z" fill="#3B82F6"/>
<path d="M69.4293 124.58C92.7313 146.914 102.974 174.04 102.974 174.04C102.974 174.04 75.4369 164.954 52.1349 142.619C28.8329 120.285 18.5902 93.1592 18.5902 93.1592C18.5902 93.1592 46.1273 102.245 69.4293 124.58Z" fill="#3F3D56"/>
<path d="M42.8291 115.155C44.0515 113.932 44.0515 111.951 42.8291 110.728C41.6066 109.506 39.6247 109.506 38.4023 110.728C37.1799 111.951 37.1799 113.932 38.4023 115.155C39.6247 116.377 41.6066 116.377 42.8291 115.155Z" fill="#3B82F6"/>
<path d="M55.6174 136.797C56.2965 136.118 56.2965 135.016 55.6174 134.337C54.9383 133.658 53.8372 133.658 53.1581 134.337C52.479 135.016 52.479 136.118 53.1581 136.797C53.8372 137.476 54.9383 137.476 55.6174 136.797Z" fill="#3B82F6"/>
<path d="M28.0732 139.748C28.7523 139.069 28.7523 137.968 28.0732 137.288C27.3941 136.609 26.293 136.609 25.6139 137.288C24.9348 137.968 24.9348 139.069 25.6139 139.748C26.293 140.427 27.3941 140.427 28.0732 139.748Z" fill="#3F3D56"/>
<path d="M60.0442 83.1839C60.7233 82.5048 60.7233 81.4037 60.0442 80.7246C59.3651 80.0455 58.264 80.0455 57.5849 80.7246C56.9058 81.4037 56.9058 82.5048 57.5849 83.1839C58.264 83.863 59.3651 83.863 60.0442 83.1839Z" fill="#3F3D56"/>
<path d="M45.7802 144.666C46.4594 143.987 46.4594 142.886 45.7802 142.207C45.1011 141.528 44.0001 141.528 43.321 142.207C42.6418 142.886 42.6418 143.987 43.321 144.666C44.0001 145.345 45.1011 145.345 45.7802 144.666Z" fill="#3F3D56"/>
<path d="M65.4543 111.22C66.1334 110.541 66.1334 109.44 65.4543 108.761C64.7752 108.082 63.6741 108.082 62.995 108.761C62.3159 109.44 62.3159 110.541 62.995 111.22C63.6741 111.899 64.7752 111.899 65.4543 111.22Z" fill="#3F3D56"/>
<path d="M65.4546 162.373C66.1337 161.694 66.1337 160.593 65.4546 159.914C64.7755 159.235 63.6744 159.235 62.9953 159.914C62.3162 160.593 62.3162 161.694 62.9953 162.373C63.6744 163.052 64.7755 163.052 65.4546 162.373Z" fill="#3F3D56"/>
<path d="M84.6372 128.435C85.3163 127.756 85.3163 126.655 84.6372 125.976C83.9581 125.297 82.857 125.297 82.1779 125.976C81.4988 126.655 81.4988 127.756 82.1779 128.435C82.857 129.114 83.9581 129.114 84.6372 128.435Z" fill="#3F3D56"/>
<path d="M74.0621 141.961C74.877 141.146 74.9871 139.935 74.308 139.256C73.6289 138.577 72.4177 138.687 71.6028 139.502C70.7878 140.317 70.6777 141.528 71.3568 142.207C72.036 142.886 73.2471 142.776 74.0621 141.961Z" fill="#3B82F6"/>
<path d="M179.5 287C177.986 287 176.457 286.976 174.956 286.929L174.99 285.839C177.145 285.906 179.345 285.925 181.51 285.895L181.525 286.986C180.851 286.995 180.176 287 179.5 287ZM188.091 286.747L188.027 285.658C190.186 285.53 192.372 285.351 194.525 285.126L194.639 286.211C192.469 286.438 190.267 286.619 188.091 286.747V286.747ZM168.396 286.577C166.22 286.41 164.02 286.192 161.858 285.926L161.991 284.844C164.137 285.106 166.319 285.324 168.479 285.489L168.396 286.577ZM201.155 285.377L200.992 284.298C203.136 283.973 205.297 283.595 207.413 283.175L207.626 284.245C205.494 284.668 203.316 285.049 201.155 285.377V285.377ZM155.358 284.978C153.208 284.613 151.037 284.195 148.907 283.732L149.138 282.665C151.252 283.125 153.406 283.54 155.54 283.902L155.358 284.978ZM214.039 282.816L213.777 281.757C215.882 281.236 217.999 280.661 220.069 280.047L220.379 281.093C218.293 281.712 216.16 282.292 214.039 282.816V282.816ZM142.52 282.191C140.411 281.63 138.289 281.012 136.212 280.355L136.54 279.315C138.602 279.967 140.708 280.579 142.801 281.136L142.52 282.191ZM226.633 279.08L226.275 278.049C228.318 277.339 230.373 276.571 232.383 275.767L232.788 276.78C230.763 277.591 228.692 278.364 226.633 279.08ZM129.978 278.225C127.929 277.472 125.868 276.66 123.852 275.81L124.276 274.804C126.276 275.647 128.322 276.454 130.355 277.201L129.978 278.225ZM238.817 274.205L238.365 273.212C240.327 272.32 242.299 271.369 244.226 270.383L244.723 271.355C242.781 272.348 240.794 273.307 238.817 274.205V274.205ZM117.845 273.117C115.876 272.179 113.9 271.181 111.971 270.15L112.486 269.188C114.4 270.21 116.361 271.201 118.315 272.132L117.845 273.117ZM250.492 268.237L249.952 267.289C251.833 266.216 253.712 265.087 255.534 263.934L256.116 264.856C254.281 266.018 252.389 267.155 250.492 268.237V268.237ZM106.242 266.917C104.369 265.803 102.493 264.628 100.667 263.426L101.268 262.514C103.079 263.708 104.941 264.874 106.799 265.979L106.242 266.917ZM261.581 261.221L260.957 260.327C262.728 259.089 264.496 257.793 266.212 256.475L266.877 257.34C265.149 258.668 263.367 259.974 261.581 261.221V261.221ZM95.26 259.685C93.4987 258.405 91.7393 257.065 90.0302 255.7L90.7111 254.848C92.4072 256.202 94.1533 257.532 95.901 258.801L95.26 259.685ZM271.99 253.221L271.287 252.387C272.938 250.993 274.581 249.541 276.172 248.071L276.913 248.872C275.31 250.354 273.654 251.817 271.99 253.221V253.221ZM84.9885 251.483C83.3481 250.047 81.7184 248.552 80.1449 247.042L80.9005 246.254C82.4623 247.754 84.0794 249.237 85.7073 250.662L84.9885 251.483ZM281.633 244.302L280.856 243.536C282.378 241.993 283.884 240.397 285.331 238.791L286.142 239.521C284.684 241.14 283.167 242.748 281.633 244.302V244.302ZM75.5098 242.386C74.0048 240.803 72.5184 239.168 71.092 237.524L71.9163 236.809C73.3318 238.44 74.8067 240.063 76.3005 241.634L75.5098 242.386ZM290.429 234.54L289.586 233.847C290.961 232.173 292.315 230.447 293.611 228.713L294.485 229.367C293.179 231.113 291.815 232.854 290.429 234.54V234.54ZM66.901 232.468C65.5494 230.76 64.2187 228.997 62.9454 227.228L63.831 226.59C65.0946 228.346 66.4153 230.096 67.7567 231.791L66.901 232.468ZM298.301 224.013L297.399 223.4C298.616 221.608 299.808 219.764 300.941 217.917L301.871 218.489C300.728 220.349 299.527 222.207 298.301 224.013V224.013ZM59.2342 221.814C58.0452 219.991 56.8815 218.116 55.775 216.238L56.7149 215.684C57.8131 217.547 58.9681 219.409 60.148 221.217L59.2342 221.814ZM305.185 212.805L304.23 212.278C305.277 210.382 306.295 208.435 307.256 206.491L308.234 206.974C307.266 208.933 306.24 210.895 305.185 212.805V212.805ZM52.5751 210.511C51.5573 208.587 50.5705 206.614 49.642 204.645L50.6289 204.18C51.5504 206.133 52.5295 208.092 53.5395 210L52.5751 210.511ZM311.012 201.008L310.013 200.57C310.882 198.584 311.717 196.551 312.495 194.526L313.513 194.917C312.73 196.958 311.888 199.007 311.012 201.008V201.008ZM46.9818 198.654C46.1453 196.646 45.3441 194.592 44.6008 192.548L45.6266 192.175C46.364 194.203 47.159 196.242 47.9889 198.234L46.9818 198.654ZM315.731 188.715L314.695 188.371C315.376 186.32 316.019 184.222 316.605 182.137L317.656 182.432C317.065 184.533 316.417 186.647 315.731 188.715V188.715ZM42.4988 186.323C41.8495 184.244 41.2394 182.119 40.6855 180.008L41.7411 179.731C42.2907 181.826 42.8963 183.935 43.5405 185.998L42.4988 186.323ZM319.288 176.068L318.225 175.821C318.713 173.718 319.16 171.57 319.553 169.438L320.626 169.635C320.23 171.784 319.78 173.948 319.288 176.068V176.068ZM39.1659 173.616C38.7108 171.485 38.299 169.313 37.9419 167.161L39.0183 166.982C39.3729 169.118 39.7816 171.273 40.2332 173.388L39.1659 173.616ZM321.666 163.149L320.584 163.001C320.878 160.864 321.125 158.684 321.321 156.523L322.408 156.621C322.211 158.799 321.961 160.995 321.666 163.149V163.149ZM37.0153 160.657C36.758 158.497 36.5467 156.297 36.3871 154.118L37.4757 154.038C37.6337 156.201 37.8436 158.384 38.0991 160.528L37.0153 160.657ZM322.852 150.067L321.762 150.018C321.859 147.856 321.909 145.663 321.909 143.5H323C323 145.679 322.95 147.889 322.852 150.067L322.852 150.067ZM36.0565 147.556C36.0192 146.219 36.0003 144.853 36 143.5C36 142.66 36.0072 141.822 36.0216 140.986L37.1128 141.005C37.0984 141.835 37.0913 142.667 37.0913 143.5C37.0915 144.843 37.1104 146.198 37.1472 147.527L36.0565 147.556ZM321.901 141.978C321.878 139.814 321.806 137.621 321.686 135.459L322.775 135.399C322.896 137.577 322.969 139.786 322.992 141.966L321.901 141.978ZM37.3718 134.49L36.2827 134.422C36.4188 132.241 36.6069 130.039 36.8411 127.876L37.926 127.994C37.6934 130.14 37.5072 132.326 37.3718 134.49ZM321.176 128.96C320.958 126.809 320.686 124.632 320.37 122.49L321.449 122.331C321.768 124.489 322.041 126.682 322.262 128.85L321.176 128.96ZM38.7756 121.53L37.6971 121.363C38.0315 119.204 38.4199 117.028 38.8518 114.895L39.9212 115.111C39.4928 117.228 39.1073 119.388 38.7756 121.53ZM319.269 116.065C318.852 113.936 318.383 111.793 317.873 109.696L318.933 109.438C319.447 111.551 319.92 113.711 320.34 115.856L319.269 116.065ZM41.3604 108.753L40.3019 108.487C40.8318 106.374 41.4187 104.243 42.0464 102.153L43.0913 102.467C42.4687 104.541 41.8863 106.656 41.3604 108.753ZM316.184 103.398C315.576 101.32 314.911 99.2304 314.208 97.1853L315.24 96.8305C315.948 98.8912 316.619 100.998 317.232 103.091L316.184 103.398ZM45.1169 96.2505L44.0875 95.8887C44.8126 93.8258 45.5956 91.753 46.4146 89.728L47.4265 90.1372C46.6136 92.1466 45.8365 94.2036 45.1169 96.2505ZM311.947 91.0699C311.151 89.0617 310.298 87.0462 309.413 85.0792L310.408 84.6311C311.3 86.6133 312.159 88.6442 312.961 90.6676L311.947 91.0699ZM50.0148 84.1391L49.0231 83.6834C49.9346 81.6986 50.9046 79.7082 51.9063 77.7676L52.8761 78.268C51.8818 80.1939 50.9193 82.1691 50.0148 84.1391ZM306.606 79.2089C305.629 77.2825 304.595 75.352 303.531 73.4719L304.48 72.9342C305.553 74.829 306.595 76.7741 307.579 78.7155L306.606 79.2089ZM56.0041 72.5362L55.0584 71.9916C56.1469 70.1014 57.2949 68.2093 58.4706 66.3683L59.3903 66.9555C58.2237 68.7826 57.0842 70.6603 56.0041 72.5362ZM300.195 67.8792C299.042 66.0436 297.835 64.2149 296.606 62.4437L297.503 61.8219C298.74 63.6066 299.957 65.4492 301.119 67.2989L300.195 67.8792ZM63.028 61.5371L62.1361 60.9084C63.3941 59.1241 64.7094 57.3458 66.0463 55.6226L66.9084 56.2913C65.5819 58.0017 64.2762 59.7664 63.028 61.5371ZM292.772 57.1763C291.457 55.4539 290.088 53.7417 288.701 52.0872L289.537 51.3862C290.934 53.0535 292.314 54.7786 293.64 56.5141L292.772 57.1763ZM71.0233 51.2296L70.1926 50.522C71.6043 48.8638 73.0758 47.2133 74.5659 45.6164L75.3635 46.3607C73.8849 47.9457 72.4246 49.5839 71.0233 51.2296ZM284.402 47.1874C282.936 45.5919 281.415 44.0104 279.883 42.4875L280.652 41.7133C282.196 43.2482 283.728 44.8414 285.205 46.4489L284.402 47.1874ZM79.9196 41.6963L79.1565 40.9162C80.7169 39.3896 82.3317 37.8803 83.9555 36.4305L84.6823 37.2446C83.0708 38.6833 81.4683 40.1811 79.9196 41.6963V41.6963ZM275.155 37.997C273.548 36.54 271.89 35.1029 270.225 33.7258L270.921 32.885C272.598 34.2725 274.269 35.7205 275.888 37.1887L275.155 37.997ZM89.6417 33.0144L88.9528 32.1683C90.6405 30.7939 92.3848 29.4383 94.1373 28.1392L94.7874 29.0157C93.0479 30.3052 91.3167 31.6504 89.6417 33.0145V33.0144ZM265.105 29.6823C263.372 28.3771 261.589 27.0965 259.805 25.876L260.421 24.9755C262.219 26.205 264.015 27.4953 265.762 28.8106L265.105 29.6823ZM100.108 25.2571L99.499 24.3518C101.305 23.1364 103.165 21.9463 105.026 20.8138L105.593 21.7462C103.746 22.87 101.901 24.0513 100.108 25.2571V25.2571ZM254.335 22.3156C252.49 21.1742 250.597 20.0616 248.706 19.0082L249.237 18.055C251.142 19.1164 253.05 20.2378 254.909 21.3874L254.335 22.3156ZM111.232 18.4906L110.708 17.5331C112.619 16.4874 114.579 15.4729 116.532 14.5172L117.012 15.4976C115.073 16.4458 113.129 17.4526 111.232 18.4906ZM242.93 15.9623C240.989 14.9949 239 14.0603 237.018 13.1846L237.46 12.1866C239.456 13.069 241.461 14.0107 243.417 14.9856L242.93 15.9623ZM122.92 12.7735L122.487 11.7723C124.484 10.9067 126.527 10.0765 128.558 9.3047L128.946 10.3251C126.93 11.0908 124.902 11.9146 122.92 12.7735H122.92ZM230.983 10.6813C228.962 9.89778 226.894 9.15019 224.836 8.45963L225.184 7.42486C227.257 8.12101 229.341 8.87418 231.377 9.66411L230.983 10.6813ZM135.093 8.15138L134.753 7.11448C136.827 6.43458 138.942 5.79437 141.041 5.21224L141.333 6.26353C139.25 6.8414 137.151 7.47655 135.093 8.15138V8.15138ZM218.608 6.52889C216.527 5.93557 214.404 5.38301 212.299 4.88668L212.549 3.82473C214.671 4.3248 216.81 4.88161 218.908 5.47919L218.608 6.52889ZM147.654 4.66527L147.411 3.60146C149.537 3.11578 151.703 2.67325 153.848 2.28641L154.042 3.36008C151.913 3.74425 149.764 4.18333 147.654 4.66527ZM205.92 3.53752C203.795 3.13867 201.631 2.78382 199.487 2.48276L199.638 1.40217C201.799 1.70563 203.98 2.06315 206.122 2.46491L205.92 3.53752ZM160.483 2.35009L160.339 1.26842C162.499 0.980158 164.696 0.737716 166.868 0.548558L166.963 1.63555C164.807 1.82364 162.627 2.06396 160.483 2.3501V2.35009ZM193.011 1.724C190.862 1.52152 188.674 1.3654 186.508 1.2607L186.561 0.170534C188.743 0.276303 190.948 0.433489 193.114 0.637592L193.011 1.724ZM173.47 1.217L173.424 0.126816C175.43 0.0431601 177.474 0.000534715 179.5 0L179.994 0.000807584L179.991 1.09206L179.5 1.09125C177.489 1.09179 175.46 1.13415 173.47 1.21701V1.217Z" fill="#3F3D56"/>
<path d="M267 129.237V169.127C266.999 169.496 266.853 169.849 266.595 170.11C266.336 170.37 265.985 170.517 265.62 170.518H264.637V378.318C264.637 384.068 262.37 389.583 258.334 393.649C254.298 397.715 248.825 400 243.118 400H114.249C111.424 400 108.626 399.439 106.015 398.349C103.405 397.259 101.033 395.662 99.0356 393.649C97.0379 391.635 95.4533 389.245 94.3725 386.615C93.2916 383.984 92.7355 381.165 92.736 378.318V177.806H92.0247C91.7666 177.806 91.519 177.704 91.3359 177.52C91.1529 177.337 91.0494 177.088 91.0482 176.828V154.126C91.0482 153.997 91.0734 153.869 91.1225 153.749C91.1716 153.63 91.2435 153.522 91.3342 153.43C91.4248 153.339 91.5325 153.266 91.651 153.217C91.7695 153.167 91.8965 153.142 92.0247 153.142H92.736V144.591H92.0187C91.7478 144.59 91.4884 144.48 91.2974 144.287C91.1064 144.093 90.9994 143.831 91 143.558V121.166C91.0007 120.894 91.1082 120.633 91.2991 120.441C91.49 120.248 91.7487 120.14 92.0187 120.139H92.736V108.466H92.0066C91.8878 108.467 91.7702 108.443 91.6604 108.397C91.5506 108.352 91.4509 108.285 91.3669 108.2C91.2829 108.115 91.2163 108.015 91.1709 107.904C91.1255 107.794 91.1023 107.675 91.1024 107.555V95.3358C91.1019 95.0935 91.1968 94.8608 91.3663 94.6889C91.5358 94.5169 91.7661 94.4198 92.0066 94.4187H92.736V69.6758C92.7362 63.9271 95.0029 58.4139 99.0374 54.3489C103.072 50.284 108.544 48.0002 114.249 48H243.118C248.824 48 254.297 50.2835 258.332 54.3483C262.368 58.4131 264.636 63.9265 264.637 69.6758V127.847H265.62C265.985 127.847 266.336 127.994 266.595 128.255C266.853 128.516 266.999 128.869 267 129.237V129.237Z" fill="#3F3D56"/>
<path d="M256 74.729V380.277C255.998 383.917 254.537 387.408 251.937 389.981C249.337 392.554 245.811 394 242.135 394H116.865C115.043 394.003 113.24 393.65 111.556 392.962C109.873 392.273 108.344 391.263 107.056 389.988C105.768 388.713 104.747 387.199 104.051 385.533C103.355 383.866 102.998 382.08 103 380.277V74.729C103 72.9261 103.359 71.1408 104.055 69.4751C104.752 67.8093 105.773 66.2958 107.061 65.021C108.348 63.7461 109.877 62.7348 111.559 62.0449C113.241 61.355 115.044 60.9999 116.865 61H135.614V63.3821C135.614 66.3802 136.817 69.2556 138.958 71.3756C141.099 73.4956 144.002 74.6866 147.03 74.6866H210.74C213.767 74.6866 216.671 73.4956 218.812 71.3756C220.953 69.2556 222.156 66.3802 222.156 63.3821V61H242.135C243.956 60.9994 245.759 61.3541 247.442 62.0439C249.124 62.7336 250.653 63.7449 251.94 65.0198C253.228 66.2948 254.249 67.8085 254.946 69.4745C255.642 71.1404 256.001 72.9259 256 74.729V74.729Z" fill="#3B82F6"/>
<path d="M360 110H227V174H360V110Z" fill="#F2F2F2"/>
<path d="M345 101H212V166H345V101Z" fill="#3F3D56"/>
<path d="M271.087 144.43C274.687 157.133 287.019 165 287.019 165C287.019 165 293.513 152.272 289.913 139.57C286.313 126.867 273.981 119 273.981 119C273.981 119 267.487 131.728 271.087 144.43Z" fill="white"/>
<path d="M276.464 141.879C285.853 150.992 287 165 287 165C287 165 272.924 164.234 263.536 155.121C254.147 146.008 253 132 253 132C253 132 267.076 132.766 276.464 141.879Z" fill="#3B82F6"/>
<path opacity="0.2" d="M137 235H0V302H137V235Z" fill="black"/>
<path d="M167 224H30V291H167V224Z" fill="#3F3D56"/>
<path d="M98.5 254C102.09 254 105 251.09 105 247.5C105 243.91 102.09 241 98.5 241C94.9102 241 92 243.91 92 247.5C92 251.09 94.9102 254 98.5 254Z" fill="#3B82F6"/>
<path d="M315 313H179V379H315V313Z" fill="#3F3D56"/>
<path d="M234.035 358.536C237.464 371.791 249.208 380 249.208 380C249.208 380 255.393 366.719 251.965 353.464C248.536 340.209 236.792 332 236.792 332C236.792 332 230.607 345.281 234.035 358.536Z" fill="white"/>
<path d="M239.155 355.478C248.819 365.143 250 380 250 380C250 380 235.51 379.187 225.845 369.522C216.18 359.857 215 345 215 345C215 345 229.49 345.813 239.155 355.478Z" fill="#3B82F6"/>
<path d="M265.913 358.536C262.313 371.791 249.981 380 249.981 380C249.981 380 243.487 366.719 247.087 353.464C250.687 340.209 263.019 332 263.019 332C263.019 332 269.513 345.281 265.913 358.536Z" fill="white"/>
<path d="M260.845 355.478C251.181 365.143 250 380 250 380C250 380 264.49 379.187 274.155 369.522C283.82 359.857 285 345 285 345C285 345 270.51 345.813 260.845 355.478Z" fill="#3B82F6"/>
<path d="M136.5 376C143.956 376 150 369.956 150 362.5C150 355.044 143.956 349 136.5 349C129.044 349 123 355.044 123 362.5C123 369.956 129.044 376 136.5 376Z" fill="white"/>
<path d="M143 362.036H136.964V356H136.036V362.036H130V362.964H136.036V369H136.964V362.964H143V362.036Z" fill="#3F3D56"/>
<path d="M123.918 387.666L123.832 387.608L122.559 386.81C122.566 384.761 121.014 381.404 117.584 378.032C114.687 375.206 111.322 373.352 109 373.265C109.276 372.939 109.579 372.636 109.906 372.359H109.913C110.057 372.237 110.208 372.115 110.366 372C113.496 372.923 116.331 374.648 118.591 377.004C122.358 380.706 124.429 384.927 123.918 387.666Z" fill="#3F3D56"/>
<path d="M126.257 121.906V144.669C126.264 145.382 126.131 146.091 125.864 146.752C125.598 147.413 125.203 148.015 124.704 148.522C124.204 149.028 123.609 149.43 122.954 149.703C122.299 149.976 121.596 150.116 120.887 150.113C117.9 150.113 115 147.678 115 144.669V121.906C115 118.938 117.891 116.502 120.887 116.502C122.309 116.508 123.672 117.079 124.677 118.091C125.683 119.104 126.251 120.475 126.257 121.906V121.906ZM128.367 152.757C128.365 153.521 128.513 154.278 128.803 154.985C129.093 155.691 129.518 156.333 130.055 156.873C130.592 157.413 131.23 157.842 131.932 158.133C132.634 158.425 133.386 158.574 134.145 158.573H138.03L138.089 170.581C138.089 177.83 148.869 177.774 148.869 170.581V158.576H156.131V170.584C156.131 177.796 166.976 177.815 166.976 170.584V158.576H170.92C171.676 158.573 172.425 158.421 173.123 158.127C173.821 157.834 174.454 157.405 174.987 156.865C175.521 156.325 175.943 155.684 176.23 154.98C176.517 154.276 176.664 153.522 176.661 152.76V117.494H128.367V152.757ZM176.791 115.598H128.147C128.147 107.179 133.144 99.8762 140.565 96.0658L136.847 89.1279C136.302 88.1644 137.687 87.5688 138.154 88.3827L141.944 95.3798C145.278 93.9119 148.878 93.1541 152.517 93.1541C156.156 93.1541 159.756 93.9119 163.09 95.3798L166.858 88.4045C167.348 87.5595 168.717 88.1894 168.166 89.1497L164.447 96.0658C171.794 99.8762 176.791 107.188 176.791 115.598ZM143.459 104.684C143.459 104.137 143.243 103.612 142.858 103.225C142.473 102.838 141.952 102.62 141.408 102.62C140.878 102.641 140.377 102.867 140.009 103.252C139.642 103.636 139.436 104.149 139.436 104.683C139.436 105.216 139.642 105.729 140.009 106.114C140.377 106.498 140.878 106.725 141.408 106.746C141.95 106.746 142.47 106.529 142.855 106.144C143.239 105.759 143.456 105.237 143.459 104.691V104.684ZM165.603 104.684C165.597 104.283 165.473 103.892 165.246 103.561C165.019 103.23 164.699 102.974 164.328 102.826C163.957 102.678 163.55 102.644 163.16 102.728C162.769 102.812 162.412 103.011 162.134 103.299C161.856 103.588 161.669 103.953 161.596 104.348C161.524 104.743 161.57 105.151 161.728 105.52C161.886 105.889 162.149 106.203 162.484 106.422C162.82 106.64 163.212 106.754 163.611 106.749C164.145 106.736 164.652 106.514 165.025 106.129C165.397 105.744 165.605 105.228 165.603 104.691V104.684ZM184.113 116.496C183.407 116.494 182.708 116.632 182.056 116.903C181.403 117.174 180.811 117.572 180.312 118.074C179.813 118.576 179.417 119.173 179.148 119.829C178.879 120.486 178.741 121.19 178.743 121.9V144.662C178.741 145.375 178.877 146.081 179.146 146.74C179.414 147.399 179.809 147.999 180.307 148.504C180.806 149.01 181.399 149.412 182.052 149.687C182.705 149.962 183.405 150.104 184.113 150.107C187.122 150.107 190 147.671 190 144.662V121.9C189.991 118.881 187.1 116.502 184.113 116.502V116.496Z" fill="white"/>
<path d="M244 273H185V277H244V273Z" fill="#3F3D56"/>
<path d="M244 260H185V264H244V260Z" fill="#3F3D56"/>
<path d="M244 247H185V251H244V247Z" fill="#3F3D56"/>
<path d="M244 286H185V290H244V286Z" fill="#3F3D56"/>
<path d="M218 203H200V221H218V203Z" fill="#F2F2F2"/>
<path d="M207 207V230H229V207H207ZM228.046 229.002H207.954V207.998H228.046V229.002Z" fill="#3F3D56"/>
<path d="M28 0H0V28H28V0Z" fill="#3B82F6"/>
<path d="M45 49H11V15H45V49ZM12.4783 47.5217H43.5217V16.4783H12.4783V47.5217Z" fill="#3F3D56"/>
<path d="M116 6H11V8H116V6Z" fill="#3F3D56"/>
<path d="M26 351H0V379H26V351Z" fill="#3B82F6"/>
<path d="M42 369H12V339H42V369ZM13.3044 367.696H40.6956V340.304H13.3044V367.696Z" fill="#3F3D56"/>
<path d="M71 358H17V360H71V358Z" fill="#3F3D56"/>
<path d="M332 248H306V271H332V248Z" fill="#3B82F6"/>
<path d="M341 258H315V232H341V258ZM316.13 256.87H339.87V233.13H316.13V256.87Z" fill="#3F3D56"/>
<path d="M326 264H272V266H326V264Z" fill="#3F3D56"/>
<path d="M313 61C323.493 61 332 52.4934 332 42C332 31.5066 323.493 23 313 23C302.507 23 294 31.5066 294 42C294 52.4934 302.507 61 313 61Z" fill="#F2F2F2"/>
<path d="M315.5 57C325.717 57 334 48.7173 334 38.5C334 28.2827 325.717 20 315.5 20C305.283 20 297 28.2827 297 38.5C297 48.7173 305.283 57 315.5 57Z" fill="#3B82F6"/>
<path d="M332 56C326.462 56 321.049 54.3578 316.444 51.2812C311.839 48.2045 308.251 43.8315 306.131 38.7151C304.012 33.5988 303.458 27.9689 304.538 22.5375C305.618 17.106 308.285 12.1169 312.201 8.20103C316.117 4.28516 321.106 1.61841 326.537 0.538024C331.969 -0.542362 337.599 0.0121332 342.715 2.13139C347.831 4.25064 352.204 7.83947 355.281 12.444C358.358 17.0486 360 22.4621 360 28C359.992 35.4235 357.039 42.5405 351.79 47.7897C346.541 53.0389 339.423 55.9916 332 56ZM332 0.643687C326.589 0.643687 321.3 2.2481 316.802 5.25405C312.303 8.26001 308.797 12.5325 306.726 17.5312C304.656 22.5299 304.114 28.0304 305.169 33.337C306.225 38.6436 308.83 43.518 312.656 47.3438C316.482 51.1697 321.356 53.7751 326.663 54.8307C331.97 55.8862 337.47 55.3445 342.469 53.274C347.468 51.2034 351.74 47.6971 354.746 43.1984C357.752 38.6997 359.356 33.4106 359.356 28C359.348 20.7472 356.463 13.7938 351.335 8.66523C346.206 3.5367 339.253 0.651889 332 0.643687V0.643687Z" fill="#3F3D56"/>
<path d="M318 37H250V39H318V37Z" fill="#3F3D56"/>
</g>
<defs>
<clipPath id="clip0_157_344">
<rect width="360" height="400" fill="white"/>
</clipPath>
</defs>
</svg>
